<?xml version="1.0" encoding="UTF-8"?>
<svg version="1.1" xmlns="http://www.w3.org/2000/svg" width="805" height="150">
<path d="M0 0 C1.29201828 -0.01283524 2.58403656 -0.02567047 3.91520691 -0.03889465 C5.32408258 -0.04706446 6.73296262 -0.05450773 8.1418457 -0.0612793 C9.21171691 -0.06739259 9.21171691 -0.06739259 10.30320168 -0.07362938 C14.08071219 -0.09446012 17.85818674 -0.10877304 21.63574219 -0.11816406 C25.5181545 -0.12920429 29.39998986 -0.16358439 33.28219891 -0.20333576 C36.28413383 -0.22960812 39.28593365 -0.23786537 42.2879734 -0.24144554 C43.71798396 -0.24628651 45.14798951 -0.25782875 46.57788658 -0.27648354 C56.45402665 -0.3972915 63.10142706 0.73692202 71.44262695 5.92700195 C77.28589779 11.93722339 78.73870348 19.11712765 78.79125977 27.27734375 C78.80086731 28.4859758 78.81047485 29.69460785 78.82037354 30.93986511 C78.82462341 32.23886246 78.82887329 33.5378598 78.83325195 34.8762207 C78.83749302 35.8766487 78.83749302 35.8766487 78.84181976 36.89728737 C78.85677705 40.42957577 78.86602727 43.96182371 78.87036133 47.49414062 C78.87582884 51.11737968 78.89982991 54.7402397 78.92833328 58.3633604 C78.94709104 61.17146331 78.95217227 63.97947748 78.9536972 66.78763771 C78.95814229 68.76493834 78.97672575 70.74219122 78.9956665 72.71940613 C78.97227044 82.26456871 78.3542147 91.53372165 71.3996582 98.70825195 C60.16436262 108.03379531 41.45858165 105.34001065 27.69555664 105.30737305 C25.0018149 105.30199534 22.3082388 105.30736294 19.61450195 105.3137207 C-11.64366051 105.33077087 -11.64366051 105.33077087 -21.30737305 96.48950195 C-26.64355231 87.91927466 -26.80556338 79.03589376 -26.7331543 69.1730957 C-26.7336528 67.8546315 -26.73415131 66.5361673 -26.73466492 65.17774963 C-26.73457583 62.40337472 -26.72427576 59.6292942 -26.70605469 56.85498047 C-26.68334744 53.32262861 -26.68283434 49.79070465 -26.68957233 46.25829983 C-26.69374156 42.85485088 -26.68172379 39.45153003 -26.6706543 36.0480957 C-26.6715657 34.79161728 -26.67247711 33.53513885 -26.67341614 32.24058533 C-26.5980229 22.84168089 -26.2796883 14.44410308 -20.15112305 6.90356445 C-14.5037633 1.42958855 -7.60662238 0.06589016 0 0 Z " fill="#599BFA" transform="translate(38.369873046875,21.822998046875)"/>
<path d="M0 0 C6.27 0 12.54 0 19 0 C22.6714299 3.6714299 23.85307734 5.53808751 26 10 C27.69913371 12.71570351 29.50871687 15.35307164 31.3125 18 C32.16302022 19.29149561 33.01329703 20.58315157 33.86328125 21.875 C35.81992862 24.94299322 35.81992862 24.94299322 38 27 C38.33 18.09 38.66 9.18 39 0 C45.27 0 51.54 0 58 0 C58 19.8 58 39.6 58 60 C51.73 60 45.46 60 39 60 C35.35465452 56.35465452 34.17990206 54.42825515 32 50 C30.11885524 47.09143925 28.11916477 44.26931519 26.125 41.4375 C25.1680929 40.04117109 24.21227969 38.6440916 23.2578125 37.24609375 C21.33140664 34.27249548 21.33140664 34.27249548 20 33 C19.67 41.91 19.34 50.82 19 60 C12.73 60 6.46 60 0 60 C0 40.2 0 20.4 0 0 Z " fill="#FEFEFE" transform="translate(490,50)"/>
<path d="M0 0 C6.27 0 12.54 0 19 0 C22.97017351 3.97017351 24.53797905 6.22237784 27 11 C28.75304001 13.74905461 30.59987603 16.4320362 32.4375 19.125 C33.29209785 20.41812702 34.14509454 21.7123144 34.99609375 23.0078125 C36.70674828 25.77143185 36.70674828 25.77143185 38 27 C38.33 18.09 38.66 9.18 39 0 C45.27 0 51.54 0 58 0 C58 19.8 58 39.6 58 60 C51.73 60 45.46 60 39 60 C32.25350853 53.12638166 32.25350853 53.12638166 30.57617188 50.046875 C30.20419678 49.38365234 29.83222168 48.72042969 29.44897461 48.03710938 C29.07393799 47.36486328 28.69890137 46.69261719 28.3125 46 C27.49001883 44.64719438 26.66127365 43.29817642 25.82617188 41.953125 C23.79392339 38.67569547 21.91366414 35.3601628 20 32 C19.67 41.24 19.34 50.48 19 60 C12.73 60 6.46 60 0 60 C0 40.2 0 20.4 0 0 Z " fill="#FEFEFE" transform="translate(422,50)"/>
<path d="M0 0 C39.65625 0 39.65625 0 47.5859375 7.5 C54.59144518 14.88141297 55.48266826 22.8796175 55.42407227 32.68432617 C55.13375698 41.51792641 52.45339753 48.83993872 46 55 C39.29159987 59.24047244 33.16133735 60.1562549 25.29296875 60.09765625 C24.3274408 60.09614563 24.3274408 60.09614563 23.34240723 60.09460449 C20.95741981 60.08940599 18.57245795 60.07544492 16.1875 60.0625 C10.845625 60.041875 5.50375 60.02125 0 60 C0 40.2 0 20.4 0 0 Z M20 16 C20 25.57 20 35.14 20 45 C27.63483022 45.24640026 27.63483022 45.24640026 33.61328125 41.44921875 C35.61362126 37.91622386 35.47461086 34.51311957 35.4375 30.5625 C35.45748047 29.81162109 35.47746094 29.06074219 35.49804688 28.28710938 C35.49458034 24.34565478 35.27547408 22.43046361 33.09765625 19.02734375 C28.55239155 14.63443429 27.84020245 16 20 16 Z " fill="#FEFEFE" transform="translate(202,50)"/>
<path d="M0 0 C5.95479349 4.7897252 9.1896559 9.83330014 10.875 17.3125 C11.84086539 26.89318648 12.09274033 37.39062217 6.328125 45.484375 C0.87945865 52.09028022 -4.38806222 55.76453198 -12.921875 57.05859375 C-22.10139292 57.78623846 -31.3634454 57.71268387 -39.125 52.3125 C-40.4553125 51.44625 -40.4553125 51.44625 -41.8125 50.5625 C-48.76783839 43.79514373 -51.07239292 36.0079969 -51.4375 26.5 C-51.15301643 16.85750418 -49.1940013 9.14783834 -42.31640625 2.15625 C-30.49350238 -7.79100602 -12.92896998 -6.98164379 0 0 Z M-28.125 13.3125 C-32.27852523 19.57947976 -31.71237035 27.05526442 -30.4375 34.125 C-28.85309523 37.97284016 -27.80529031 39.35489877 -24.125 41.3125 C-20.99269151 41.91508566 -18.24921264 41.98601686 -15.125 41.3125 C-12.36930553 39.13090855 -10.68911253 37.44072506 -9.125 34.3125 C-8.97387061 31.69389265 -8.89366138 29.11959118 -8.875 26.5 C-8.854375 25.78779297 -8.83375 25.07558594 -8.8125 24.34179688 C-8.77870013 19.77458941 -9.35050227 16.95571183 -12.125 13.3125 C-16.82825703 8.60924297 -22.97492855 10.04418543 -28.125 13.3125 Z " fill="#FEFEFE" transform="translate(403.125,53.6875)"/>
<path d="M0 0 C16.83 0 33.66 0 51 0 C51 4.62 51 9.24 51 14 C40.77 14 30.54 14 20 14 C20 16.31 20 18.62 20 21 C29.24 21 38.48 21 48 21 C48 25.62 48 30.24 48 35 C38.76 35 29.52 35 20 35 C20 37.97 20 40.94 20 44 C20.93384521 43.99476318 21.86769043 43.98952637 22.82983398 43.98413086 C26.28312796 43.9671238 29.73637767 43.95456698 33.18969727 43.94506836 C34.68644918 43.94002879 36.18319616 43.93319713 37.67993164 43.92456055 C39.82699807 43.91247841 41.97399962 43.90676809 44.12109375 43.90234375 C46.06133423 43.89448853 46.06133423 43.89448853 48.04077148 43.88647461 C51 44 51 44 52 45 C52.09909302 47.33160055 52.12970504 49.66629942 52.125 52 C52.12886719 53.918125 52.12886719 53.918125 52.1328125 55.875 C52 59 52 59 51 60 C49.44000952 60.09846967 47.87559456 60.12798618 46.3125 60.12939453 C45.31476562 60.13254669 44.31703125 60.13569885 43.2890625 60.13894653 C42.20367188 60.1369223 41.11828125 60.13489807 40 60.1328125 C38.89398437 60.13376923 37.78796875 60.13472595 36.6484375 60.13571167 C34.30468692 60.13639367 31.96093447 60.13453804 29.6171875 60.13037109 C26.01558212 60.12502314 22.41410147 60.13031547 18.8125 60.13671875 C16.54166639 60.13605797 14.27083286 60.13477682 12 60.1328125 C10.91460938 60.13483673 9.82921875 60.13686096 8.7109375 60.13894653 C7.71320312 60.13579437 6.71546875 60.13264221 5.6875 60.12939453 C4.80449219 60.12859894 3.92148437 60.12780334 3.01171875 60.12698364 C1 60 1 60 0 59 C-0.09381302 57.15881971 -0.11743954 55.31402359 -0.11352539 53.47045898 C-0.11344986 52.28931015 -0.11337433 51.10816132 -0.11329651 49.89122009 C-0.10813522 48.6058284 -0.10297394 47.32043671 -0.09765625 45.99609375 C-0.0962413 44.68794205 -0.09482635 43.37979034 -0.09336853 42.03199768 C-0.0895441 38.54837141 -0.07971446 35.06478661 -0.06866455 31.58117676 C-0.05844882 28.02873302 -0.05381586 24.47628241 -0.04882812 20.92382812 C-0.03862232 13.94918209 -0.01905064 6.97465003 0 0 Z " fill="#FEFEFE" transform="translate(557,50)"/>
<path d="M0 0 C3.78048726 3.45482731 7.05660192 7.21625088 9 12 C9 13.32 9 14.64 9 16 C6.93918639 16.50690584 4.87626474 17.00524619 2.8125 17.5 C1.66394531 17.7784375 0.51539063 18.056875 -0.66796875 18.34375 C-3.56818829 18.91495385 -6.06096385 19.13283779 -9 19 C-9.66 17.02 -10.32 15.04 -11 13 C-12.58129029 12.77668801 -14.16521089 12.57195356 -15.75 12.375 C-16.63171875 12.25898437 -17.5134375 12.14296875 -18.421875 12.0234375 C-21.31731216 11.99711534 -22.65661881 12.31441002 -25 14 C-28.33758963 20.00267985 -29.01959392 26.8758733 -27.390625 33.46484375 C-26.69274525 35.71871049 -26.01604887 37.87002599 -25 40 C-21.54138188 41.72930906 -17.78193574 41.47864071 -14 41 C-10.15945104 38.43963402 -9.18969309 35.36220799 -8 31 C-1.68878497 32.0992895 4.06338584 33.58137942 10 36 C9.65509861 42.72557702 6.03154501 47.93887894 1.3984375 52.6171875 C-5.84997617 58.42278897 -15.53168282 58.65209051 -24.40234375 57.7578125 C-32.03801611 56.60481421 -37.90076909 53.39085596 -43.1171875 47.68359375 C-48.46101889 40.066971 -50.08383374 30.12006439 -49 21 C-47.58108999 12.944957 -45.41642828 6.16176116 -38.59375 1.27734375 C-27.76046684 -5.46159563 -11.16737983 -7.52857067 0 0 Z " fill="#FEFEFE" transform="translate(663,53)"/>
<path d="M0 0 C4.11858787 3.63456579 6.91882122 7.91267408 9 13 C9 13.99 9 14.98 9 16 C6.93918639 16.50690584 4.87626474 17.00524619 2.8125 17.5 C1.66394531 17.7784375 0.51539063 18.056875 -0.66796875 18.34375 C-3.59754768 18.92073624 -6.03704383 19.33040159 -9 19 C-10.5625 16.625 -10.5625 16.625 -12 14 C-14.62884748 11.85797613 -16.79893143 11.88591073 -20.0625 12.125 C-22.94467316 12.57500473 -23.78243615 12.78945434 -25.9375 14.875 C-28.99929974 20.99859948 -29.06828769 28.78234469 -27.3984375 35.375 C-26.30896699 38.01614062 -25.61387892 39.69306054 -23 41 C-20.89145964 41.2352732 -20.89145964 41.2352732 -18.5625 41.25 C-17.38880859 41.28867188 -17.38880859 41.28867188 -16.19140625 41.328125 C-13.44276689 40.91656403 -12.67766295 40.17897643 -11 38 C-10.02284391 36.19809386 -10.02284391 36.19809386 -9.3125 34.3125 C-8.879375 33.219375 -8.44625 32.12625 -8 31 C-1.68878497 32.0992895 4.06338584 33.58137942 10 36 C7.71739218 44.18398414 5.14093897 50.4012268 -2.375 54.875 C-8.57710102 58.28051729 -15.16207057 58.18332858 -22.0625 57.75 C-22.74376953 57.72292969 -23.42503906 57.69585937 -24.12695312 57.66796875 C-31.85524808 57.20768605 -37.90860789 53.6966625 -43 48 C-49.14186098 38.14776027 -50.88779263 27.26935251 -48.28125 15.8515625 C-45.3055272 7.09237847 -41.3675122 2.36319111 -33.18359375 -2.01953125 C-23.74492648 -6.25764482 -8.68588241 -5.74008895 0 0 Z " fill="#FEFEFE" transform="translate(338,53)"/>
<path d="M0 0 C0.80277878 -0.00428513 1.60555756 -0.00857025 2.43266296 -0.01298523 C4.13144997 -0.01872699 5.83026156 -0.01922992 7.52905273 -0.01489258 C10.11680611 -0.01174299 12.70340446 -0.03515639 15.29101562 -0.06054688 C16.94400898 -0.06282106 18.5970054 -0.06352281 20.25 -0.0625 C21.40342644 -0.07631462 21.40342644 -0.07631462 22.58015442 -0.09040833 C27.38580083 -0.04943916 30.65360331 0.66763184 34.82421875 3.30078125 C38.58541727 7.67948998 39.31235803 10.72053302 39.13671875 16.42578125 C39.09933594 17.73160156 39.06195313 19.03742188 39.0234375 20.3828125 C38.95769531 21.67574219 38.89195313 22.96867187 38.82421875 24.30078125 C38.76878906 25.48027344 38.71335938 26.65976563 38.65625 27.875 C38.1376047 35.9873953 38.1376047 35.9873953 35.82421875 38.30078125 C32.86981397 38.53777569 30.01243019 38.6531912 27.0546875 38.671875 C25.7449572 38.68541771 25.7449572 38.68541771 24.4087677 38.69923401 C22.55859821 38.71375773 20.70837711 38.7226285 18.8581543 38.72631836 C16.03280395 38.73819263 13.2096532 38.78733611 10.38476562 38.83789062 C8.58725025 38.8473573 6.78972144 38.85459116 4.9921875 38.859375 C3.72788155 38.88867348 3.72788155 38.88867348 2.43803406 38.91856384 C-1.95522219 38.88493523 -3.63897724 38.73049436 -7.1862793 35.89086914 C-10.4661017 31.62094205 -10.48248953 28.09749861 -10.73828125 22.86328125 C-10.77856445 22.05375 -10.81884766 21.24421875 -10.86035156 20.41015625 C-10.9727814 18.04062659 -11.075333 15.6708449 -11.17578125 13.30078125 C-11.23121094 12.12386719 -11.28664063 10.94695312 -11.34375 9.734375 C-11.37082031 8.76628906 -11.39789062 7.79820313 -11.42578125 6.80078125 C-11.4515625 5.96546875 -11.47734375 5.13015625 -11.50390625 4.26953125 C-11.395625 3.61984375 -11.28734375 2.97015625 -11.17578125 2.30078125 C-7.40081769 -0.21586113 -4.37420022 -0.00514394 0 0 Z " fill="#E1E8F9" transform="translate(41.17578125,53.69921875)"/>
<path d="M0 0 C17.92141733 -2.2306784 17.92141733 -2.2306784 22.82958984 1.32568359 C26.09709863 5.09035088 27.95579576 9.49750913 30 14 C31.52506293 15.67852672 31.52506293 15.67852672 33 17 C33.62648437 15.94039062 34.25296875 14.88078125 34.8984375 13.7890625 C35.72380234 12.4009489 36.54933174 11.01293314 37.375 9.625 C37.99375 8.57699219 37.99375 8.57699219 38.625 7.5078125 C39.02460938 6.8375 39.42421875 6.1671875 39.8359375 5.4765625 C40.20251465 4.85861816 40.5690918 4.24067383 40.94677734 3.60400391 C42 2 42 2 44 0 C46.06298828 -0.22705078 46.06298828 -0.22705078 48.5703125 -0.1953125 C49.91416016 -0.18564453 49.91416016 -0.18564453 51.28515625 -0.17578125 C52.69087891 -0.15064453 52.69087891 -0.15064453 54.125 -0.125 C55.06988281 -0.11597656 56.01476562 -0.10695312 56.98828125 -0.09765625 C59.32577292 -0.07404522 61.66276123 -0.04111516 64 0 C63.4382611 4.09639402 62.15842646 6.6467596 59.796875 10.01953125 C59.14589844 10.95990234 58.49492187 11.90027344 57.82421875 12.86914062 C57.13972656 13.84044922 56.45523438 14.81175781 55.75 15.8125 C53.75691267 18.67156265 51.76814638 21.53269307 49.79956055 24.40869141 C48.7127876 25.97360907 47.59687829 27.51957909 46.42895508 29.02490234 C42.10126129 34.93835743 42.22432346 40.85624781 42.1875 48 C42.16236328 49.15628906 42.13722656 50.31257813 42.11132812 51.50390625 C42.05282255 54.33557629 42.0234593 57.16782279 42 60 C35.73 60 29.46 60 23 60 C23.05542969 58.3809375 23.11085937 56.761875 23.16796875 55.09375 C23.3374149 40.71186944 21.90541658 31.82733294 12.53271484 20.86035156 C9.89707384 17.66130976 7.65495923 14.20667175 5.375 10.75 C4.94968994 10.12915527 4.52437988 9.50831055 4.08618164 8.86865234 C2.09982918 5.92648259 0.73150776 3.46365644 0 0 Z " fill="#FEFEFE" transform="translate(134,50)"/>
<path d="M0 0 C18.48 0 36.96 0 56 0 C56 5.28 56 10.56 56 16 C50.06 16 44.12 16 38 16 C38 30.52 38 45.04 38 60 C31.4 60 24.8 60 18 60 C18 45.48 18 30.96 18 16 C12.06 16 6.12 16 0 16 C0 10.72 0 5.44 0 0 Z " fill="#FEFEFE" transform="translate(676,50)"/>
<path d="M0 0 C0.33 0 0.66 0 1 0 C1.01458252 0.59949463 1.02916504 1.19898926 1.04418945 1.81665039 C1.11923821 4.56587455 1.21570752 7.31395889 1.3125 10.0625 C1.33505859 11.00544922 1.35761719 11.94839844 1.38085938 12.91992188 C1.59870336 18.60366937 2.06913789 23.05710441 5 28 C7.70762246 28.98340015 10.24778065 29.12613525 13.11010742 29.12939453 C13.90740768 29.13254669 14.70470795 29.13569885 15.52616882 29.13894653 C16.3773378 29.1369223 17.22850677 29.13489807 18.10546875 29.1328125 C19.42518425 29.13424759 19.42518425 29.13424759 20.77156067 29.13571167 C22.62659782 29.13639102 24.48163737 29.13455381 26.33666992 29.13037109 C29.18739089 29.12500021 32.03795568 29.13033417 34.88867188 29.13671875 C36.69010452 29.1360583 38.49153706 29.13477783 40.29296875 29.1328125 C41.15021042 29.13483673 42.00745209 29.13686096 42.89067078 29.13894653 C46.75628226 29.50582627 46.75628226 29.50582627 50 28 C50.228226 26.1500004 50.39504938 24.29234486 50.53515625 22.43359375 C50.62216797 21.30888672 50.70917969 20.18417969 50.79882812 19.02539062 C50.9293457 17.24938477 50.9293457 17.24938477 51.0625 15.4375 C51.15337891 14.24962891 51.24425781 13.06175781 51.33789062 11.83789062 C51.56266136 8.89221095 51.78317196 5.94627326 52 3 C52.99 3.33 53.98 3.66 55 4 C55 9.28 55 14.56 55 20 C56.32 20.66 57.64 21.32 59 22 C60.17329845 23.33402427 61.29694151 24.71289522 62.375 26.125 C65.14873642 29.53832215 65.14873642 29.53832215 69.4375 30.5 C70.7059375 30.2525 70.7059375 30.2525 72 30 C71.34 31.32 70.68 32.64 70 34 C66.6875 34.25 66.6875 34.25 63 34 C61.3125 32.0625 61.3125 32.0625 60 30 C57.90584196 29.20376178 57.90584196 29.20376178 56 29 C55.46375 29.9075 54.9275 30.815 54.375 31.75 C52.30457179 35.25380158 49.51743567 37.02169426 46 39 C43.18041216 39.33674287 40.77773826 39.47176343 37.9765625 39.390625 C37.23038666 39.38496521 36.48421082 39.37930542 35.71542358 39.37347412 C33.35127363 39.35122898 30.98868541 39.30105984 28.625 39.25 C27.01434493 39.22991944 25.40366591 39.2116714 23.79296875 39.1953125 C19.86138493 39.15140381 15.93095648 39.08246318 12 39 C12 38.34 12 37.68 12 37 C10.96875 36.835 9.9375 36.67 8.875 36.5 C4.77549524 35.24760547 2.5035085 33.24897252 0.09375 29.73046875 C-2.26950014 23.83078357 -1.45713198 17.22784217 -1 11 C-0.91878906 9.85144531 -0.83757813 8.70289062 -0.75390625 7.51953125 C-0.54256548 5.00620174 -0.29713459 2.50442015 0 0 Z " fill="#4678CE" transform="translate(28,62)"/>
<path d="M0 0 C1.84765625 0.7265625 1.84765625 0.7265625 2.84765625 1.7265625 C2.94809966 4.17560919 2.98640041 6.59031147 2.97265625 9.0390625 C2.97845703 10.05516602 2.97845703 10.05516602 2.984375 11.09179688 C2.97772265 14.49447528 2.67906924 17.44972383 1.84765625 20.7265625 C1.62375308 23.47974224 1.43371963 26.21961579 1.28515625 28.9765625 C1.24197266 29.72164062 1.19878906 30.46671875 1.15429688 31.234375 C1.048689 33.0649115 0.94771424 34.89571426 0.84765625 36.7265625 C-5.41825556 35.66732503 -10.35396396 31.64023837 -14.15234375 26.7265625 C-14.99929402 23.95414586 -15.1642036 21.36542522 -15.15234375 18.4765625 C-15.15202148 17.79134521 -15.15169922 17.10612793 -15.15136719 16.40014648 C-14.91887682 12.6478068 -14.24613507 10.83773418 -11.8125 7.953125 C-10.93464844 7.21835937 -10.05679688 6.48359375 -9.15234375 5.7265625 C-8.53230469 5.12070312 -7.91226563 4.51484375 -7.2734375 3.890625 C-6.71785156 3.38273437 -6.16226563 2.87484375 -5.58984375 2.3515625 C-5.03167969 1.82820313 -4.47351563 1.30484375 -3.8984375 0.765625 C-2.15234375 -0.2734375 -2.15234375 -0.2734375 0 0 Z " fill="#DFE6F8" transform="translate(97.15234375,55.2734375)"/>
<path d="M0 0 C0.99 0.33 1.98 0.66 3 1 C3 6.28 3 11.56 3 17 C4.32 17.66 5.64 18.32 7 19 C8.17329845 20.33402427 9.29694151 21.71289522 10.375 23.125 C13.14873642 26.53832215 13.14873642 26.53832215 17.4375 27.5 C18.7059375 27.2525 18.7059375 27.2525 20 27 C19.34 28.32 18.68 29.64 18 31 C14.8125 31.4375 14.8125 31.4375 11 31 C9.41786112 29.32327673 8.35627344 27.64129219 7.23828125 25.62890625 C5.67316483 23.57006225 4.50487052 23.37441223 2 23 C1.690625 24.134375 1.38125 25.26875 1.0625 26.4375 C0 30 0 30 -1 31 C-4.07912559 31.10119282 -7.13535499 31.13968327 -10.21484375 31.1328125 C-11.60395714 31.13424759 -11.60395714 31.13424759 -13.02113342 31.13571167 C-14.98406034 31.13639362 -16.9469895 31.13453832 -18.90991211 31.13037109 C-21.92111263 31.12502907 -24.93216357 31.13031247 -27.94335938 31.13671875 C-29.8463545 31.13605785 -31.74934953 31.13477645 -33.65234375 31.1328125 C-35.01020241 31.13584885 -35.01020241 31.13584885 -36.39549255 31.13894653 C-37.23298538 31.13579437 -38.07047821 31.13264221 -38.93334961 31.12939453 C-39.67201767 31.12859894 -40.41068573 31.12780334 -41.17173767 31.12698364 C-43 31 -43 31 -45 30 C-44.505 28.515 -44.505 28.515 -44 27 C-43.01 27.33 -42.02 27.66 -41 28 C-38.14668835 28.1091571 -35.31852085 28.16404552 -32.46484375 28.16796875 C-31.63038223 28.17129715 -30.79592072 28.17462555 -29.93617249 28.17805481 C-28.17351838 28.18311455 -26.41085472 28.18546343 -24.64819336 28.18530273 C-21.94433986 28.18749446 -19.24089097 28.2056743 -16.53710938 28.22460938 C-14.82552223 28.22754239 -13.11393315 28.2295278 -11.40234375 28.23046875 C-10.18513893 28.24124702 -10.18513893 28.24124702 -8.94334412 28.25224304 C-4.50083622 28.41982817 -4.50083622 28.41982817 -1 26 C-0.62792646 23.28384136 -0.62792646 23.28384136 -0.5859375 20.1171875 C-0.54726562 18.95058594 -0.50859375 17.78398438 -0.46875 16.58203125 C-0.4378125 15.35871094 -0.406875 14.13539062 -0.375 12.875 C-0.33632812 11.64394531 -0.29765625 10.41289063 -0.2578125 9.14453125 C-0.1633001 6.09650624 -0.07774506 3.04849138 0 0 Z " fill="#3B66B7" transform="translate(80,65)"/>
<path d="M0 0 C5.02569772 7.53854658 5.3284044 16.71135992 4.9375 25.5 C4.91196045 26.26513916 4.8864209 27.03027832 4.86010742 27.81860352 C4.53905859 32.70879769 3.63415725 35.44690201 0 39 C-2.5625 40.375 -2.5625 40.375 -5 41 C-5.99 40.67 -6.98 40.34 -8 40 C-8 39.34 -8 38.68 -8 38 C-5.69 37.34 -3.38 36.68 -1 36 C-1 35.67 -1 35.34 -1 35 C-1.763125 35.0825 -2.52625 35.165 -3.3125 35.25 C-6 35 -6 35 -7.8125 33 C-8.204375 32.34 -8.59625 31.68 -9 31 C-8.401875 31.309375 -7.80375 31.61875 -7.1875 31.9375 C-4.91043228 33.10209704 -4.91043228 33.10209704 -2 34 C-2.01160156 32.89140625 -2.02320312 31.7828125 -2.03515625 30.640625 C-2.04453792 29.17708502 -2.05363771 27.71354322 -2.0625 26.25 C-2.07506836 25.15558594 -2.07506836 25.15558594 -2.08789062 24.0390625 C-2.10398912 20.497393 -1.88785534 17.40963459 -1 14 C-0.77882441 11.5861824 -0.59427758 9.16885403 -0.4375 6.75 C-0.35371094 5.48671875 -0.26992187 4.2234375 -0.18359375 2.921875 C-0.12300781 1.95765625 -0.06242187 0.9934375 0 0 Z " fill="#6088D2" transform="translate(100,58)"/>
<path d="M0 0 C1.32 0.33 2.64 0.66 4 1 C3.01 1.495 3.01 1.495 2 2 C1.8656674 8.77633355 2.02598343 15.54242404 2.3125 22.3125 C2.33497803 23.07675293 2.35745605 23.84100586 2.38061523 24.62841797 C2.61207312 29.43287479 3.49272078 32.77190716 6 37 C3 36 3 36 1.375 33.0625 C-0.44705711 28.4835083 -0.66536914 23.88561062 -1 19 C-1.33 23.62 -1.66 28.24 -2 33 C-6.66672503 23.66654993 -3.85524761 11.97802009 -0.875 2.375 C-0.58625 1.59125 -0.2975 0.8075 0 0 Z " fill="#82A1DD" transform="translate(29,54)"/>
<path d="M0 0 C0 0.99 0 1.98 0 3 C-3.91314034 5.60876023 -7.21748425 5.26967935 -11.75390625 5.23046875 C-13.03889259 5.22978142 -13.03889259 5.22978142 -14.34983826 5.2290802 C-16.15959052 5.22606053 -17.96934024 5.21818273 -19.77905273 5.20581055 C-22.55526899 5.18754757 -25.33115181 5.18530095 -28.10742188 5.18554688 C-29.86458623 5.1806318 -31.62174831 5.17480353 -33.37890625 5.16796875 C-34.21224991 5.16685593 -35.04559357 5.1657431 -35.90419006 5.16459656 C-41.76785097 5.11607452 -41.76785097 5.11607452 -44 4 C-43.67 3.01 -43.34 2.02 -43 1 C-42.01 1.33 -41.02 1.66 -40 2 C-37.14668835 2.1091571 -34.31852085 2.16404552 -31.46484375 2.16796875 C-30.63038223 2.17129715 -29.79592072 2.17462555 -28.93617249 2.17805481 C-27.17351838 2.18311455 -25.41085472 2.18546343 -23.64819336 2.18530273 C-20.94433986 2.18749446 -18.24089097 2.2056743 -15.53710938 2.22460938 C-13.82552223 2.22754239 -12.11393315 2.2295278 -10.40234375 2.23046875 C-9.18513893 2.24124702 -9.18513893 2.24124702 -7.94334412 2.25224304 C-3.50083622 2.41982817 -3.50083622 2.41982817 0 0 Z " fill="#214D9E" transform="translate(79,91)"/>
<path d="M0 0 C5.31097213 7.9664582 5.52577682 17.82695621 4 27 C3.34 26.67 2.68 26.34 2 26 C1.58935547 23.49975586 1.58935547 23.49975586 1.3671875 20.21484375 C1.28339844 19.04501953 1.19960937 17.87519531 1.11328125 16.66992188 C1.03464844 15.43822266 0.95601563 14.20652344 0.875 12.9375 C0.78863281 11.70193359 0.70226562 10.46636719 0.61328125 9.19335938 C0.40034105 6.12938644 0.19632138 3.06507544 0 0 Z " fill="#4D87E1" transform="translate(100,58)"/>
<path d="M0 0 C5.4809035 -0.09893328 10.96128645 -0.17149865 16.44287109 -0.21972656 C18.30722101 -0.23983261 20.17150794 -0.2671218 22.03564453 -0.30175781 C24.71662948 -0.35032121 27.39678023 -0.37297838 30.078125 -0.390625 C30.91055725 -0.41127014 31.7429895 -0.43191528 32.60064697 -0.45318604 C38.42460278 -0.45544041 38.42460278 -0.45544041 41.55761719 2.02441406 C42.03360352 2.67635742 42.50958984 3.32830078 43 4 C42.36102783 3.84152588 41.72205566 3.68305176 41.0637207 3.51977539 C37.02893158 2.83525343 33.06639397 2.76613744 28.98046875 2.68359375 C27.69261223 2.6524221 27.69261223 2.6524221 26.3787384 2.62062073 C23.64840346 2.55547477 20.91797605 2.49640346 18.1875 2.4375 C16.33137082 2.3942815 14.47525084 2.35066616 12.61914062 2.30664062 C8.07952075 2.19982939 3.53980828 2.09846435 -1 2 C-0.67 1.34 -0.34 0.68 0 0 Z " fill="#6997E5" transform="translate(32,52)"/>
<path d="M0 0 C0.99 0.33 1.98 0.66 3 1 C2.43410156 1.48210938 1.86820313 1.96421875 1.28515625 2.4609375 C0.55167969 3.09257813 -0.18179688 3.72421875 -0.9375 4.375 C-1.66839844 5.00148438 -2.39929688 5.62796875 -3.15234375 6.2734375 C-5.08380906 7.87747714 -5.08380906 7.87747714 -6 10 C-7.8125 9.9375 -7.8125 9.9375 -10 9 C-11.75 5.4375 -11.75 5.4375 -13 2 C-12.34 2 -11.68 2 -11 2 C-10.01 3.485 -10.01 3.485 -9 5 C-6.13275314 4.42655063 -5.1385485 4.1385485 -3 2 C-2.01 2 -1.02 2 0 2 C0 1.34 0 0.68 0 0 Z " fill="#5C88D4" transform="translate(90,56)"/>
<path d="M0 0 C0.33 0 0.66 0 1 0 C1.19812858 3.54115525 1.38159963 7.08292616 1.5625 10.625 C1.61857422 11.62402344 1.67464844 12.62304688 1.73242188 13.65234375 C1.97786206 18.59387286 2.12056885 23.13590113 1 28 C0.34 27.67 -0.32 27.34 -1 27 C-1.10234659 17.93664124 -1.06996173 9.01824887 0 0 Z " fill="#3D71C8" transform="translate(28,62)"/>
<path d="M0 0 C4.875 2.875 4.875 2.875 6 4 C7.99958364 4.04080783 10.00045254 4.04254356 12 4 C11.34 5.32 10.68 6.64 10 8 C7.69 8 5.38 8 3 8 C2.34 6.68 1.68 5.36 1 4 C1.33 3.67 1.66 3.34 2 3 C1.34 2.67 0.68 2.34 0 2 C0 1.34 0 0.68 0 0 Z " fill="#2A5AAF" transform="translate(88,88)"/>
<path d="M0 0 C3.20154138 5.29910298 3.37248099 9.9161438 3 16 C2.67 16 2.34 16 2 16 C1.89042969 15.40832031 1.78085938 14.81664063 1.66796875 14.20703125 C0.47746072 7.57980856 0.47746072 7.57980856 -3 2 C-6.62599422 1.58274322 -6.62599422 1.58274322 -10 2 C-9 0 -9 0 -7.25 -0.6875 C-4.35717615 -1.08928109 -2.73113904 -1.1204673 0 0 Z " fill="#6796E4" transform="translate(101,54)"/>
<path d="M0 0 C0.433125 0.598125 0.86625 1.19625 1.3125 1.8125 C2.88569382 3.99203516 2.88569382 3.99203516 4.6875 5.5 C6 7 6 7 6 11 C6.66 11.33 7.32 11.66 8 12 C5.36638744 11.62376963 3.92779828 10.94785432 1.75 9.375 C-0.61110785 6.17063934 -0.29868478 3.88290217 0 0 Z " fill="#2E61B8" transform="translate(29,84)"/>
<path d="M0 0 C1.32 0.33 2.64 0.66 4 1 C3.29423828 1.50466797 3.29423828 1.50466797 2.57421875 2.01953125 C0.25657227 4.93528005 0.17788982 8.09729361 -0.1875 11.6875 C-0.26935547 12.38939453 -0.35121094 13.09128906 -0.43554688 13.81445312 C-0.63529273 15.54166726 -0.81919988 17.27070003 -1 19 C-1.33 19 -1.66 19 -2 19 C-2.05451714 16.95863605 -2.09302485 14.91684144 -2.125 12.875 C-2.14820312 11.73804687 -2.17140625 10.60109375 -2.1953125 9.4296875 C-1.99672109 5.94242233 -1.2524801 3.2446138 0 0 Z " fill="#5886D5" transform="translate(29,54)"/>
<path d="M0 0 C0.33 1.32 0.66 2.64 1 4 C-0.6875 5.5625 -0.6875 5.5625 -3 7 C-5.75 6.6875 -5.75 6.6875 -8 6 C-8 5.34 -8 4.68 -8 4 C-6.865625 3.71125 -5.73125 3.4225 -4.5625 3.125 C-3.386875 2.75375 -2.21125 2.3825 -1 2 C-0.67 1.34 -0.34 0.68 0 0 Z " fill="#2E72D6" transform="translate(100,92)"/>
</svg>
